# xmcd CD database file
#
# Track frame offsets:
#	150
#	13406
#	27091
#	42196
#	57496
#	99869
#	129804
#	147736
#	159338
#	174103
#	189693
#	202591
#	222701
#	235465
#	253529
#	266143
#	282395
#	301792
#	316589
#
# Disc length: 4573 seconds
#
# Revision: 0
# Processed by: cddbd v1.5.2PL0 Copyright (c) Steve Scherf et al.
# Submitted via: CDex 1.70beta2
#
DISCID=0911db13
DTITLE=Various Artist - Haynes - Ultimate Guide to Jazz - CD2
DYEAR=2011
DGENRE=Jazz
TTITLE0=Duke Ellington - Take The 'A' Train
TTITLE1=Sarah Vaughan - Ain't Misbehavin'
TTITLE2=Count Basie and His Orchestra - Cheek to Cheek
TTITLE3=Louis Armstrong and His Allstars - Mack The Knife
TTITLE4=Miles Davis - So What
TTITLE5=Dexter Gordon - The Moontrane
TTITLE6=Freddie Hubbard - Yesterday's Dreams
TTITLE7=Bud Powell - I Cover The Waterfront
TTITLE8=Art Tatum - Tea For Two
TTITLE9=John McLaughlin - My Foolish Heart
TTITLE10=Johnny Hodges - The Very Thought Of You
TTITLE11=Keith Jarrett - Expectations
TTITLE12=Aretha Franklin - Walk On By
TTITLE13=Paul Desmond - Embarcadero
TTITLE14=Charlie Byrd - The Girl From Ipanema
TTITLE15=Lisa Ekdahl - Now Or Never
TTITLE16=Santana - Oye Como Va
TTITLE17=Mongo Santamaria - Watermelon Man
TTITLE18=Ramsey Lewis - The 'In' Crowd (live)
EXTD=YEAR: 2011
EXTT0=
EXTT1=
EXTT2=
EXTT3=
EXTT4=
EXTT5=
EXTT6=
EXTT7=
EXTT8=
EXTT9=
EXTT10=
EXTT11=
EXTT12=
EXTT13=
EXTT14=
EXTT15=
EXTT16=
EXTT17=
EXTT18=
PLAYORDER=
